<svg class="bob" font-family="arial" font-size="14" height="128" width="344" xmlns="http://www.w3.org/2000/svg">
<defs>
<marker id="triangle" markerHeight="8" markerWidth="8" orient="auto" refX="4" refY="2" viewBox="0 0 8 4">
<polygon fill="black" points="0,0 0,4 8,2 0,0"/>
</marker>
<marker id="clear_triangle" markerHeight="10" markerWidth="10" orient="auto" refX="1" refY="7" viewBox="0 0 20 14">
<polygon fill="none" points="2,2 2,12 18,7 2,2" stroke="black" stroke-width="2"/>
</marker>
<marker id="circle" markerHeight="5" markerWidth="5" orient="auto" refX="10" refY="10" viewBox="0 0 20 20">
<circle cx="10" cy="10" fill="black" r="8"/>
</marker>
<marker id="square" markerHeight="5" markerWidth="5" orient="auto" refX="10" refY="10" viewBox="0 0 20 20">
<rect fill="black" height="20" width="20" x="0" y="0"/>
</marker>
<marker id="open_circle" markerHeight="10" markerWidth="10" orient="auto" refX="10" refY="10" viewBox="0 0 20 20">
<circle cx="10" cy="10" fill="white" r="4" stroke="black" stroke-width="2"/>
</marker>
<marker id="big_open_circle" markerHeight="20" markerWidth="20" orient="auto" refX="20" refY="20" viewBox="0 0 40 40">
<circle cx="20" cy="20" fill="white" r="6" stroke="black" stroke-width="2"/>
</marker>
</defs>
<style type="text/css">

    line,path {
      stroke: black;
      stroke-width: 2;
      stroke-opacity: 1;
      fill-opacity: 1;
      stroke-linecap: round;
      stroke-linejoin: miter;
    }
    line.dashed {
        stroke-dasharray: 5;
    }
    circle.solid {
      fill:black;
      stroke: black;
      stroke-width: 2;
      stroke-opacity: 1;
      fill-opacity: 1;
      stroke-linecap: round;
      stroke-linejoin: miter;
    }
    circle.open {
      fill:none;
      stroke: black;
      stroke-width: 2;
      stroke-opacity: 1;
      fill-opacity: 1;
      stroke-linecap: round;
      stroke-linejoin: miter;
    }
    tspan.head{
        fill: none;
        stroke: none;
    }
    
</style>
<rect fill="white" height="128" width="344" x="0" y="0"/>
<g>
<line marker-end="url(#circle)" marker-start="url(#circle)" x1="84" x2="148" y1="72" y2="72"/>
<line marker-end="url(#triangle)" marker-start="url(#circle)" x1="148" x2="166" y1="72" y2="108"/>
<line marker-end="url(#circle)" marker-start="url(#circle)" x1="148" x2="196" y1="72" y2="72"/>
<line marker-end="url(#circle)" marker-start="url(#circle)" x1="196" x2="228" y1="72" y2="72"/>
<line marker-end="url(#circle)" marker-start="url(#circle)" x1="228" x2="268" y1="72" y2="72"/>
<line marker-start="url(#circle)" x1="268" x2="282" y1="72" y2="100"/>
<line marker-end="url(#triangle)" marker-start="url(#circle)" x1="268" x2="316" y1="72" y2="72"/>
<line marker-end="url(#circle)" x1="282" x2="268" y1="44" y2="72"/>
<path d="M 282 100 A 8 8 0 0 0 288 104" fill="none"/>
<path d="M 288 40 A 8 8 0 0 0 282 44" fill="none"/>
</g>
<g>
<line marker-end="url(#triangle)" x1="184" x2="204" y1="120" y2="120"/>
</g>
<g>
<line x1="232" x2="240" y1="120" y2="120"/>
<path d="M 240 120 A 8 8 0 0 0 246 116" fill="none"/>
</g>
<g>
<line marker-end="url(#triangle)" x1="246" x2="262" y1="116" y2="84"/>
</g>
<g>
<line marker-end="url(#triangle)" x1="288" x2="316" y1="40" y2="40"/>
</g>
<g>
<line marker-end="url(#triangle)" x1="288" x2="316" y1="104" y2="104"/>
</g>
<g>
<text x="41" y="12">
Sequence
</text>
</g>
<g>
<text x="81" y="60">
A
</text>
</g>
<g>
<text x="113" y="12">
Diagrams
</text>
</g>
<g>
<text x="145" y="60">
B
</text>
</g>
<g>
<text x="169" y="124">
B
</text>
</g>
<g>
<text x="201" y="60">
C
</text>
</g>
<g>
<text x="217" y="124">
C
</text>
</g>
<g>
<text x="225" y="60">
D
</text>
</g>
<g>
<text x="337" y="44">
F
</text>
</g>
<g>
<text x="337" y="76">
E
</text>
</g>
<g>
<text x="337" y="108">
G
</text>
</g>
<g>
<line marker-end="url(#triangle)" marker-start="url(#open_circle)" x1="4" x2="20" y1="8" y2="8"/>
</g>
</svg>