<svg xmlns="http://www.w3.org/2000/svg" width="352" height="256">
    <style>
        line, path, circle, rect, polygon{stroke:black;stroke-width:2;stroke-opacity:1;fill-opacity:1;stroke-linecap:round;stroke-linejoin:miter;}text{font-family:Iosevka Fixed, monospace;font-size:14px;}rect.backdrop{stroke:none;fill:white;}.broken{stroke-dasharray:8;}.filled{fill:black;}.bg_filled{fill:white;}.nofill{fill:white;}.end_marked_arrow{marker-end:url(#arrow);}.start_marked_arrow{marker-start:url(#arrow);}.end_marked_diamond{marker-end:url(#diamond);}.start_marked_diamond{marker-start:url(#diamond);}.end_marked_circle{marker-end:url(#circle);}.start_marked_circle{marker-start:url(#circle);}.end_marked_open_circle{marker-end:url(#open_circle);}.start_marked_open_circle{marker-start:url(#open_circle);}.end_marked_big_open_circle{marker-end:url(#big_open_circle);}.start_marked_big_open_circle{marker-start:url(#big_open_circle);}
        <!--separator-->
        
    </style>
    <defs>
        <marker id="arrow" viewBox="-2 -2 8 8" refX="4" refY="2" markerWidth="7" markerHeight="7" orient="auto-start-reverse">
            <polygon points="0,0 0,4 4,2 0,0"></polygon>
        </marker>
        <marker id="diamond" viewBox="-2 -2 8 8" refX="4" refY="2" markerWidth="7" markerHeight="7" orient="auto-start-reverse">
            <polygon points="0,2 2,0 4,2 2,4 0,2"></polygon>
        </marker>
        <marker id="circle" viewBox="0 0 8 8" refX="4" refY="4" markerWidth="7" markerHeight="7" orient="auto-start-reverse">
            <circle cx="4" cy="4" r="2" class="filled"></circle>
        </marker>
        <marker id="open_circle" viewBox="0 0 8 8" refX="4" refY="4" markerWidth="7" markerHeight="7" orient="auto-start-reverse">
            <circle cx="4" cy="4" r="2" class="bg_filled"></circle>
        </marker>
        <marker id="big_open_circle" viewBox="0 0 8 8" refX="4" refY="4" markerWidth="7" markerHeight="7" orient="auto-start-reverse">
            <circle cx="4" cy="4" r="3" class="bg_filled"></circle>
        </marker>
    </defs>
    <rect class="backdrop" x="0" y="0" width="352" height="256"></rect>
    <circle cx="4" cy="8" r="3" class="nofill"></circle>
    <text x="42" y="12" >Sequence</text>
    <text x="114" y="12" >Diagrams</text>
    <text x="282" y="76" >.</text>
    <text x="338" y="76" >F</text>
    <text x="82" y="108" >A</text>
    <text x="146" y="108" >B</text>
    <text x="202" y="108" >C</text>
    <text x="226" y="108" >D</text>
    <line x1="280" y1="96" x2="272" y2="112" class="solid"></line>
    <circle cx="84" cy="136" r="3" class="filled"></circle>
    <line x1="88" y1="136" x2="144" y2="136" class="solid"></line>
    <circle cx="148" cy="136" r="3" class="filled"></circle>
    <line x1="152" y1="136" x2="192" y2="136" class="solid"></line>
    <circle cx="196" cy="136" r="3" class="filled"></circle>
    <line x1="200" y1="136" x2="224" y2="136" class="solid"></line>
    <circle cx="228" cy="136" r="3" class="filled"></circle>
    <line x1="232" y1="136" x2="264" y2="136" class="solid"></line>
    <circle cx="268" cy="136" r="3" class="filled"></circle>
    <text x="338" y="140" >E</text>
    <line x1="152" y1="160" x2="160" y2="176" class="solid"></line>
    <text x="258" y="172" >^</text>
    <line x1="272" y1="160" x2="280" y2="176" class="solid"></line>
    <text x="162" y="204" >v</text>
    <line x1="256" y1="192" x2="248" y2="208" class="solid"></line>
    <text x="282" y="204" >&#39;</text>
    <text x="338" y="204" >G</text>
    <text x="170" y="236" >B</text>
    <text x="218" y="236" >C</text>
    <line x1="232" y1="232" x2="240" y2="232" class="solid"></line>
    <text x="242" y="236" >&#39;</text>
    <g>
        <line x1="8" y1="8" x2="16" y2="8" class="solid"></line>
        <polygon points="16,4 24,8 16,12" class="filled"></polygon>
    </g>
    <g>
        <line x1="288" y1="72" x2="312" y2="72" class="solid"></line>
        <polygon points="312,68 320,72 312,76" class="filled"></polygon>
    </g>
    <g>
        <line x1="272" y1="136" x2="312" y2="136" class="solid"></line>
        <polygon points="312,132 320,136 312,140" class="filled"></polygon>
    </g>
    <g>
        <line x1="288" y1="200" x2="312" y2="200" class="solid"></line>
        <polygon points="312,196 320,200 312,204" class="filled"></polygon>
    </g>
    <g>
        <line x1="184" y1="232" x2="200" y2="232" class="solid"></line>
        <polygon points="200,228 208,232 200,236" class="filled"></polygon>
    </g>
</svg>